<svg height="512pt" viewBox="-59 0 512 512" width="512pt" xmlns="http://www.w3.org/2000/svg"><path d="m366.40625 386.265625h-31.925781v64.898437h31.925781c11.566406 0 21.03125-9.460937 21.03125-21.027343v-22.839844c0-11.566406-9.464844-21.03125-21.03125-21.03125zm0 0" fill="#ce7132"/><path d="m367.480469 451.109375v-64.785156c-.355469-.019531-.710938-.054688-1.074219-.054688h-31.925781v64.894531h31.925781c.363281 0 .71875-.035156 1.074219-.054687zm0 0" fill="#b75f23"/><path d="m366.40625 321.371094h-31.925781v64.898437h31.925781c11.566406 0 21.03125-9.464843 21.03125-21.03125v-22.839843c0-11.5625-9.464844-21.027344-21.03125-21.027344zm0 0" fill="#e4eaf8"/><path d="m367.480469 386.214844v-64.789063c-.355469-.015625-.710938-.054687-1.074219-.054687h-31.925781v64.898437h31.925781c.363281 0 .71875-.039062 1.074219-.054687zm0 0" fill="#c7d2e5"/><path d="m366.40625 256.472656h-31.925781v64.898438h31.925781c11.566406 0 21.03125-9.460938 21.03125-21.027344v-22.839844c0-11.566406-9.464844-21.03125-21.03125-21.03125zm0 0" fill="#1dd1a1"/><path d="m367.480469 321.316406v-64.785156c-.355469-.019531-.710938-.058594-1.074219-.058594h-31.925781v64.898438h31.925781c.363281 0 .71875-.035156 1.074219-.054688zm0 0" fill="#15ba8b"/><path d="m366.40625 191.578125h-31.925781v64.894531h31.925781c11.566406 0 21.03125-9.460937 21.03125-21.027344v-22.839843c0-11.566407-9.464844-21.027344-21.03125-21.027344zm0 0" fill="#54a0ff"/><path d="m367.480469 256.417969v-64.785157c-.355469-.019531-.710938-.054687-1.074219-.054687h-31.925781v64.894531h31.925781c.363281 0 .71875-.035156 1.074219-.054687zm0 0" fill="#338def"/><path d="m366.40625 126.679688h-31.925781v64.898437h31.925781c11.566406 0 21.03125-9.464844 21.03125-21.027344v-22.84375c0-11.5625-9.464844-21.027343-21.03125-21.027343zm0 0" fill="#feca57"/><path d="m367.480469 191.523438v-64.789063c-.355469-.015625-.710938-.054687-1.074219-.054687h-31.925781v64.898437h31.925781c.363281 0 .71875-.035156 1.074219-.054687zm0 0" fill="#f4b537"/><path d="m366.40625 61.785156h-31.925781v64.898438h31.925781c11.566406 0 21.03125-9.464844 21.03125-21.03125v-22.839844c0-11.566406-9.464844-21.027344-21.03125-21.027344zm0 0" fill="#ff6b6b"/><path d="m367.480469 126.625v-64.785156c-.355469-.019532-.710938-.054688-1.074219-.054688h-31.925781v64.894532h31.925781c.363281 0 .71875-.035157 1.074219-.054688zm0 0" fill="#ee5253"/><path d="m325.074219 7.976562h-283.746094c-6.824219 0-12.40625 5.582032-12.40625 12.402344v472.191406c0 6.820313 5.582031 12.402344 12.40625 12.402344h283.746094c6.824219 0 12.40625-5.582031 12.40625-12.402344v-472.191406c0-6.820312-5.582031-12.402344-12.40625-12.402344zm0 0" fill="#576574"/><path d="m58.921875 492.570312v-472.191406c0-6.820312 5.585937-12.402344 12.40625-12.402344h-30c-6.824219 0-12.40625 5.582032-12.40625 12.402344v472.191406c0 6.820313 5.582031 12.402344 12.40625 12.402344h30c-6.824219 0-12.40625-5.582031-12.40625-12.402344zm0 0" fill="#3e4b5a"/><path d="m275.320312 197.167969c0 50.875-41.242187 92.117187-92.121093 92.117187-50.875 0-92.117188-41.242187-92.117188-92.117187s41.242188-92.117188 92.117188-92.117188c50.878906 0 92.121093 41.242188 92.121093 92.117188zm0 0" fill="#3e4b5a"/><path d="m121.085938 197.167969c0-45.765625 33.375-83.730469 77.117187-90.898438-4.882813-.796875-9.894531-1.21875-15.003906-1.21875-50.875 0-92.117188 41.242188-92.117188 92.117188s41.242188 92.117187 92.117188 92.117187c5.109375 0 10.121093-.421875 15.003906-1.222656-43.742187-7.164062-77.117187-45.128906-77.117187-90.894531zm0 0" fill="#313f4c"/><path d="m217.195312 173.039062c0 18.777344-15.21875 33.996094-33.996093 33.996094-18.773438 0-33.996094-15.21875-33.996094-33.996094 0-18.773437 15.222656-33.996093 33.996094-33.996093 18.777343 0 33.996093 15.222656 33.996093 33.996093zm0 0" fill="#ffcdbf"/><path d="m179.207031 173.039062c0-13.386718 7.746094-24.964843 18.996094-30.507812-4.527344-2.230469-9.617187-3.488281-15.003906-3.488281-18.773438 0-33.996094 15.222656-33.996094 33.996093 0 18.777344 15.222656 33.996094 33.996094 33.996094 5.386719 0 10.476562-1.253906 15.003906-3.484375-11.25-5.542969-18.996094-17.121093-18.996094-30.511719zm0 0" fill="#ffbeab"/><path d="m217.632812 232.773438h-68.863281c-10.953125 0-19.910156 8.960937-19.910156 19.910156v18.863281c15.234375 11.148437 34.015625 17.738281 54.339844 17.738281s39.109375-6.589844 54.34375-17.738281v-18.863281c0-10.949219-8.960938-19.910156-19.910157-19.910156zm0 0" fill="#ff6b6b"/><path d="m198.203125 288.0625c-28.414063-4.65625-52.445313-22.316406-65.804687-46.660156-2.222657 3.210937-3.539063 7.097656-3.539063 11.28125v18.863281c6.71875 4.917969 14.03125 8.890625 21.988281 11.886719 14.835938 5.570312 31.183594 7.277344 47.355469 4.628906zm0 0" fill="#ee5253"/><g fill="#020202"><path d="m7.5 443.191406c-4.144531 0-7.5 3.355469-7.5 7.5 0 4.140625 3.355469 7.5 7.5 7.5h13.691406v33.902344c0 10.976562 8.929688 19.90625 19.90625 19.90625h124.371094c4.144531 0 7.5-3.359375 7.5-7.5 0-4.144531-3.355469-7.5-7.5-7.5h-124.371094c-2.660156 0-4.90625-2.246094-4.90625-4.90625v-33.902344h13.691406c4.144532 0 7.5-3.359375 7.5-7.5 0-4.144531-3.355468-7.5-7.5-7.5h-13.691406v-28.265625h13.691406c4.144532 0 7.5-3.359375 7.5-7.5s-3.355468-7.5-7.5-7.5h-13.691406v-28.265625h13.691406c4.144532 0 7.5-3.355468 7.5-7.5 0-4.140625-3.355468-7.5-7.5-7.5h-13.691406v-28.261718h13.691406c4.144532 0 7.5-3.359376 7.5-7.503907 0-4.140625-3.355468-7.5-7.5-7.5h-13.691406v-28.261719h13.691406c4.144532 0 7.5-3.359374 7.5-7.5 0-4.144531-3.355468-7.5-7.5-7.5h-13.691406v-28.265624h13.691406c4.144532 0 7.5-3.359376 7.5-7.5 0-4.140626-3.355468-7.5-7.5-7.5h-13.691406v-28.265626h13.691406c4.144532 0 7.5-3.355468 7.5-7.5 0-4.140624-3.355468-7.5-7.5-7.5h-13.691406v-28.261718h13.691406c4.144532 0 7.5-3.359375 7.5-7.5 0-4.144532-3.355468-7.5-7.5-7.5h-13.691406v-28.265625h13.691406c4.144532 0 7.5-3.359375 7.5-7.5s-3.355468-7.5-7.5-7.5h-13.691406v-28.265625h13.691406c4.144532 0 7.5-3.355469 7.5-7.5 0-4.140625-3.355468-7.5-7.5-7.5h-13.691406v-33.902344c0-2.660156 2.246094-4.90625 4.90625-4.90625h283.746094c2.660156 0 4.90625 2.246094 4.90625 4.90625v472.1875c0 2.660156-2.246094 4.90625-4.90625 4.90625h-124.371094c-4.144531 0-7.5 3.355469-7.5 7.5 0 4.140625 3.355469 7.5 7.5 7.5h124.371094c10.980469 0 19.90625-8.929688 19.90625-19.90625v-33.902344h21.429688c15.730468 0 28.527343-12.800781 28.527343-28.53125v-22.839844c0-8.316406-3.578125-15.808593-9.273437-21.027343 5.695312-5.21875 9.273437-12.714844 9.273437-21.027344v-22.839844c0-8.316406-3.578125-15.808593-9.273437-21.03125 5.695312-5.21875 9.273437-12.710937 9.273437-21.027343v-22.839844c0-8.316406-3.578125-15.808594-9.273437-21.027344 5.695312-5.21875 9.273437-12.714844 9.273437-21.027344v-22.839844c0-8.316406-3.578125-15.808593-9.273437-21.027343 5.695312-5.222657 9.273437-12.714844 9.273437-21.03125v-22.839844c0-8.3125-3.578125-15.808594-9.273437-21.027344 5.695312-5.21875 9.273437-12.710937 9.273437-21.027343v-22.839844c0-15.734375-12.796875-28.53125-28.527343-28.53125h-21.429688v-33.902344c0-10.976562-8.929688-19.90625-19.90625-19.90625h-283.746094c-10.976562 0-19.90625 8.929688-19.90625 19.90625v33.902344h-13.691406c-4.144531 0-7.5 3.359375-7.5 7.5 0 4.144531 3.355469 7.5 7.5 7.5h13.691406v28.265625h-13.691406c-4.144531 0-7.5 3.359375-7.5 7.5s3.355469 7.5 7.5 7.5h13.691406v28.265625h-13.691406c-4.144531 0-7.5 3.355468-7.5 7.5 0 4.140625 3.355469 7.5 7.5 7.5h13.691406v28.261718h-13.691406c-4.144531 0-7.5 3.359376-7.5 7.503907 0 4.140625 3.355469 7.5 7.5 7.5h13.691406v28.261719h-13.691406c-4.144531 0-7.5 3.359374-7.5 7.5 0 4.144531 3.355469 7.5 7.5 7.5h13.691406v28.265624h-13.691406c-4.144531 0-7.5 3.359376-7.5 7.5 0 4.140626 3.355469 7.5 7.5 7.5h13.691406v28.265626h-13.691406c-4.144531 0-7.5 3.355468-7.5 7.5 0 4.140624 3.355469 7.5 7.5 7.5h13.691406v28.261718h-13.691406c-4.144531 0-7.5 3.359375-7.5 7.5 0 4.144532 3.355469 7.503906 7.5 7.503906h13.691406v28.261719h-13.691406c-4.144531 0-7.5 3.359375-7.5 7.5 0 4.144531 3.355469 7.5 7.5 7.5h13.691406v28.265625zm337.25-374.382812h21.429688c7.457031 0 13.527343 6.070312 13.527343 13.53125v22.839844c0 7.457031-6.070312 13.527343-13.527343 13.527343h-21.429688zm0 64.898437h21.429688c7.457031 0 13.527343 6.070313 13.527343 13.527344v22.839844c0 7.460937-6.070312 13.527343-13.527343 13.527343h-21.429688zm0 64.898438h21.429688c7.457031 0 13.527343 6.066406 13.527343 13.527343v22.839844c0 7.457032-6.070312 13.527344-13.527343 13.527344h-21.429688zm0 64.894531h21.429688c7.457031 0 13.527343 6.066406 13.527343 13.527344v22.839844c0 7.460937-6.070312 13.527343-13.527343 13.527343h-21.429688zm0 64.898438h21.429688c7.457031 0 13.527343 6.066406 13.527343 13.527343v22.839844c0 7.457031-6.070312 13.527344-13.527343 13.527344h-21.429688zm0 64.894531h21.429688c7.457031 0 13.527343 6.070312 13.527343 13.527343v22.839844c0 7.460938-6.070312 13.53125-13.527343 13.53125h-21.429688zm0 0"/><path d="m224.0625 344.425781c4.144531 0 7.5-3.359375 7.5-7.5 0-4.144531-3.355469-7.5-7.5-7.5h-82.183594c-4.144531 0-7.5 3.355469-7.5 7.5 0 4.140625 3.355469 7.5 7.5 7.5zm0 0"/><path d="m265.152344 362.003906h-164.363282c-4.144531 0-7.5 3.355469-7.5 7.5 0 4.140625 3.355469 7.5 7.5 7.5h164.363282c4.144531 0 7.503906-3.359375 7.503906-7.5 0-4.144531-3.359375-7.5-7.503906-7.5zm0 0"/><path d="m265.152344 394.582031h-164.363282c-4.144531 0-7.5 3.359375-7.5 7.5 0 4.144531 3.355469 7.5 7.5 7.5h164.363282c4.144531 0 7.503906-3.355469 7.503906-7.5 0-4.140625-3.359375-7.5-7.503906-7.5zm0 0"/><path d="m100.789062 442.164062h164.363282c4.144531 0 7.503906-3.359374 7.503906-7.5 0-4.144531-3.359375-7.503906-7.503906-7.503906h-164.363282c-4.144531 0-7.5 3.359375-7.5 7.503906 0 4.140626 3.355469 7.5 7.5 7.5zm0 0"/><path d="m141.472656 172.566406c0 22.878906 18.617188 41.496094 41.496094 41.496094 22.882812 0 41.496094-18.617188 41.496094-41.496094 0-22.882812-18.613282-41.496094-41.496094-41.496094-22.878906 0-41.496094 18.613282-41.496094 41.496094zm67.992188 0c0 14.609375-11.882813 26.496094-26.492188 26.496094s-26.496094-11.886719-26.496094-26.496094 11.886719-26.496094 26.496094-26.496094 26.492188 11.886719 26.492188 26.496094zm0 0"/><path d="m266.054688 180.609375c.785156 4.066406 4.714843 6.730469 8.785156 5.945313 4.066406-.78125 6.730468-4.710938 5.945312-8.78125-8.992187-46.761719-50.132812-80.699219-97.816406-80.699219-54.929688 0-99.617188 44.6875-99.617188 99.617187 0 54.40625 44.109376 99.617188 99.617188 99.617188 48.652344 0 89-34.871094 97.816406-80.699219.785156-4.066406-1.878906-8-5.945312-8.78125-4.070313-.785156-8 1.878906-8.785156 5.949219-3.089844 16.066406-10.652344 30.347656-21.242188 41.660156v-2.230469c0-15.113281-12.296875-27.40625-27.410156-27.40625h-68.863282c-13.476562 0-27.40625 9.949219-27.40625 29.5625-14.117187-15.125-22.777343-35.402343-22.777343-57.671875 0-46.65625 37.957031-84.617187 84.617187-84.617187 40.5 0 75.445313 28.824219 83.082032 68.535156zm-129.921876 71.597656c0-6.839843 5.5625-12.40625 12.40625-12.40625h68.863282c6.84375 0 12.410156 5.566407 12.410156 12.40625v14.917969c-13.53125 9-29.675781 14.183594-46.84375 14.183594-16.402344 0-32.667969-4.734375-46.839844-14.1875v-14.914063zm0 0"/></g></svg>